<svg xmlns="http://www.w3.org/2000/svg" viewBox="0 0 396.52 80.93"><defs><style>.cls-1{fill:#202020;}.cls-2{fill:#feb803;}</style></defs><g id="Layer_2" data-name="Layer 2"><g id="Layer_1-2" data-name="Layer 1"><path class="cls-1" d="M14.61,47.62c-4.7-2.7-8.65-5-12.68-7.23A2.63,2.63,0,0,1,.27,37.67a8.34,8.34,0,0,0,0-1C-.5,20.4-.51,20.4,13.54,12.23c6.3-3.66,12.71-7.18,18.89-11,2.66-1.66,4.84-1.62,7.13.26.73.6,1.51,1.37,2.19,1.81,7.72,5,7.76,4.92-.21,9.5-7.76,4.46-15.44,9.05-23.32,13.28-2.94,1.57-3.87,3.46-3.68,6.66C14.82,37.33,14.61,42,14.61,47.62Z"/><path class="cls-1" d="M52.69,55.56c0,5.32,0,9.91,0,14.5,0,1.47-.36,2.6-1.85,3.15a8.4,8.4,0,0,0-.84.53c-4.62,2.58-9.2,7.06-13.9,7.19-4.4.12-9-4.31-13.4-6.82-6.35-3.58-12.59-7.35-19-10.8C1.25,62,0,60.58.19,57.61c.3-4.08.08-8.19.08-12.89,8.24,4.71,15.94,9.07,23.59,13.5,3,1.72,5.82,3.65,8.75,5.43,2.31,1.4,4.4,1.07,6.72-.41C43.45,60.61,47.8,58.34,52.69,55.56Z"/><path class="cls-1" d="M57.24,69.45c0-12.92-.11-25,.08-37.14,0-3.09-.92-4.84-3.61-6.21-4.41-2.26-8.65-4.85-13.33-7.5,3.94-2.28,7.83-4.26,11.42-6.68,2.68-1.81,4.87-.14,6.85.73,4,1.8,7.73,4.3,11.59,6.47,1.67.93,1.36,2.49,1.36,3.94,0,11.62,0,23.24.06,34.86,0,2.2-.44,3.71-2.54,4.81C65.33,64.69,61.69,66.91,57.24,69.45Z"/><path class="cls-1" d="M251.35,41.56c0-5.31,0-10.62,0-15.93,0-1.25-.45-3.07,1.61-3,7.1.4,14.39-1.56,21.18,2.74,8.2,5.2,12.15,12.53,10.11,21-1.87,7.75-9.62,14.79-18.46,15.24-14.46.74-14.45,1-14.45-13.13Zm6.57.48c0,3.48,0,7,0,10.43,0,1.05-.45,2.48,1.3,2.72,3.06.42,6.9,1.14,9.06.23,4.52-1.9,8.84-5.23,9.76-10.92.84-5.21-.91-9.37-5-12.65-3.49-2.79-7.55-2.94-11.75-3-2.46,0-3.61.52-3.43,3.26C258.08,35.42,257.91,38.74,257.92,42Z"/><path class="cls-1" d="M134,42.44c0-5.32.12-10.64-.05-16-.08-2.67.52-3.83,3.53-3.75,8,.2,16,.13,24,0,2.24,0,3.25.4,3.23,3s-.67,3.48-3.36,3.38c-5.49-.2-11,.27-16.46-.16-4.34-.35-4.46,1.82-4.32,5,.13,2.82-.57,5.69,4.09,5.14,3.61-.44,7.31-.05,11-.11,2.13,0,3.77-.15,3.73,3s-1.47,3.51-4,3.4c-3.32-.14-6.69.27-10-.11-4.14-.48-4.86,1.23-4.92,5-.07,4,.87,5.62,5.16,5.3,5.13-.37,10.31,0,15.47-.12,2.36-.06,3.65.3,3.58,3.18-.06,2.65-.94,3.37-3.5,3.32-7.81-.14-15.64-.23-23.45,0-3.37.11-3.82-1.29-3.73-4.08C134.09,52.75,134,47.59,134,42.44Z"/><path class="cls-1" d="M366.77,41.55c0-5.16.13-10.31,0-15.46-.1-2.88.54-4.13,3.81-4,7.48.26,15,.17,22.47,0,2.46-.05,3.53.46,3.52,3.24s-.93,3.41-3.47,3.34c-5.49-.15-11,.15-16.47-.1-4.87-.23-3.06,3.19-3.23,5.41s-1,5.17,3.32,4.8c3.64-.31,7.32,0,11-.09,2.25-.06,3.75.07,3.62,3.09-.11,2.56-.76,3.57-3.42,3.37-2.82-.21-5.66-.05-8.49,0-5.82,0-7.71,2.76-6.08,8.51.56,2,2,1.43,3.12,1.44,5.66.07,11.32.14,17,0,2.43-.06,3.17.78,3.12,3.14-.05,2.15-.32,3.31-2.95,3.25q-11.73-.26-23.47,0c-2.66,0-3.44-.87-3.36-3.45C366.89,52.52,366.77,47,366.77,41.55Z"/><path class="cls-1" d="M213.39,22.63c7.46,7.7,13.78,16.56,23.13,23.38,0-6.85.07-13.09,0-19.32,0-2.43,0-4.06,3.31-4,2.89.06,3.17,1.35,3.16,3.67-.08,12.07,0,24.15,0,37.66L218.5,38.19c0,7.4-.05,13.76,0,20.12,0,2.23-.07,3.71-3.08,3.68-2.79,0-3.27-1.09-3.25-3.53.1-11.75.05-23.51.05-35.26Z"/><path class="cls-1" d="M203.81,61.36c-5.41,1.76-8.47-.25-10.86-4.29-1.5-2.56-3.66-4.73-5.28-7.23-1.82-2.77-4.55-1.87-6.78-1.59-2.67.33-1.15,2.92-1.43,4.5a24.09,24.09,0,0,0-.34,6.29c.33,3.33-1.38,2.71-3.27,2.88-2.36.22-2.76-.94-2.75-2.93.05-11.13.07-22.26,0-33.39,0-2.14.6-2.91,2.82-2.85,4.81.15,9.64,0,14.46.09s10,3.89,11.41,8.54,1.22,9.31-3,12.71c-3.56,2.87-4.41,5.48-.71,9.08C200.32,55.37,201.78,58.39,203.81,61.36ZM179.19,35.42c.86,2.31-1.31,5.93,1.54,6.56a20.66,20.66,0,0,0,11.72-.44,6.23,6.23,0,0,0,3.24-8.66c-1.73-3.69-7.07-5.21-14.31-3.79C177,29.94,180.6,33.56,179.19,35.42Z"/><path class="cls-2" d="M19.34,31.45c4.95,2.83,9.16,5.07,13.18,7.61,2.37,1.49,4.26,1.7,6.72.09,4-2.61,8.27-4.8,13.32-7.68,0,6.34,0,11.88-.06,17.42a2.8,2.8,0,0,1-1.22,2c-4.56,2.73-9.19,5.35-13.81,8a2.71,2.71,0,0,1-2.84,0q-6.92-4-13.85-7.91c-1.4-.79-1.45-2.08-1.44-3.44C19.35,42.56,19.34,37.58,19.34,31.45Z"/><path class="cls-1" d="M303.38,51.33c-4.79-1.35-8.45.65-9.75,6.4-.47,2.12-2.21,2.87-3.82,3.45A4.86,4.86,0,0,1,286,61c-1.54-1.05.08-2.42.57-3.44,5-10.44,10.1-20.83,15.18-31.23.56-1.15.87-2.52,2.62-2.53s2.19,1.45,2.71,2.48c5.42,10.94,10.73,21.93,16.07,32.91.35.73.75,1.84-.4,2-2.07.2-4.33,1-6.16-.69a7.12,7.12,0,0,1-1.08-2.21C312.13,51.32,312.13,51.33,303.38,51.33Zm.37-5.43c2.12,0,5.1,0,4.8-1.93-.47-3-2-8-4.23-8-3.09,0-3,5-3.94,7.82C299.4,46.74,302.51,45.52,303.75,45.9Z"/><path class="cls-1" d="M89.78,24.4c5.4-1.72,7.74.32,9.54,4.45,2.7,6.19,6,12.13,9.41,18.93,3.73-7.38,7.38-13.94,10.38-20.8,1.42-3.25,3.53-3.28,6.22-3.15,1.86.09,2.34.75,1.49,2.49Q118.65,43.15,110.53,60c-.93,1.92-2.08,2.79-3.31.26C101.42,48.41,95.66,36.52,89.78,24.4Z"/><path class="cls-1" d="M329.47,41.9c0-4.81,0-9.62,0-14.44,0-2.28-1-4.92,3.27-5,4.67-.12,3.5,2.82,3.51,5.23.06,8,.14,15.94,0,23.9-.07,2.82.72,3.72,3.59,3.62,5.8-.22,11.62,0,17.44-.11,2.39-.06,3.18.7,3.12,3.11-.05,2.14-.28,3.32-2.91,3.27-8.31-.15-16.62-.17-24.92,0-2.94.06-3.18-1.31-3.13-3.62.11-5.31,0-10.63,0-15.94Z"/></g></g></svg>